HIERARCHY
ROOT Hips
{
     OFFSET 13.08270 94.00480 -17.40550
     CHANNELS 6 Xposition Yposition Zposition Zrotation Xrotation Yrotation
     JOINT Spine
     {
          OFFSET 0.00000 11.89050 0.00000
          CHANNELS 3 Zrotation Xrotation Yrotation
          JOINT Spine1
          {
               OFFSET -0.00000 25.65740 0.12766
               CHANNELS 3 Zrotation Xrotation Yrotation
               JOINT HEad
               {
                    OFFSET -0.00000 8.73416 0.01134
                    CHANNELS 3 Zrotation Xrotation Yrotation
                    End Site
                    {
                         OFFSET -0.29000 12.77420 2.51395
                    }
               }
               JOINT LeftShoulder1
               {
                    OFFSET 8.99000 -0.36225 -0.22000
                    CHANNELS 3 Zrotation Xrotation Yrotation
                    JOINT LeftArm
                    {
                         OFFSET 10.28270 -0.00338 0.32212
                         CHANNELS 3 Zrotation Xrotation Yrotation
                         JOINT LeftForeArm
                         {
                              OFFSET 32.76690 0.09914 -1.42434
                              CHANNELS 3 Zrotation Xrotation Yrotation
                              JOINT LeftHand
                              {
                                   OFFSET 27.56430 0.08536 1.02216
                                   CHANNELS 3 Zrotation Xrotation Yrotation
                                   End Site
                                   {
                                        OFFSET 16.74430 -0.60000 1.50291
                                   }
                              }
                         }
                    }
               }
               JOINT RightShoulder
               {
                    OFFSET -8.99000 -0.36225 -0.22000
                    CHANNELS 3 Zrotation Xrotation Yrotation
                    JOINT RightArm
                    {
                         OFFSET -10.28270 -0.00338 0.32212
                         CHANNELS 3 Zrotation Xrotation Yrotation
                         JOINT RightForeArm
                         {
                              OFFSET -32.89710 0.09914 -1.42434
                              CHANNELS 3 Zrotation Xrotation Yrotation
                              JOINT RightHand
                              {
                                   OFFSET -27.49210 0.08536 1.02216
                                   CHANNELS 3 Zrotation Xrotation Yrotation
                                   End Site
                                   {
                                        OFFSET -16.63120 -0.60000 1.50291
                                   }
                              }
                         }
                    }
               }
          }
     }
     JOINT LeftUpLeg
     {
          OFFSET 8.94580 -8.66707 0.10165
          CHANNELS 3 Zrotation Xrotation Yrotation
          JOINT LeftLeg
          {
               OFFSET 0.00000 -44.42270 1.37270
               CHANNELS 3 Zrotation Xrotation Yrotation
               JOINT LeftFoot
               {
                    OFFSET -0.25355 -42.09240 -1.46059
                    CHANNELS 3 Zrotation Xrotation Yrotation
                    JOINT LeftToes
                    {
                         OFFSET -0.04000 -4.41509 8.49910
                         CHANNELS 3 Zrotation Xrotation Yrotation
                         End Site
                         {
                              OFFSET 0.08000 -0.04745 9.77979
                         }
                    }
               }
          }
     }
     JOINT RightUpLeg
     {
          OFFSET -8.94580 -8.66707 0.10165
          CHANNELS 3 Zrotation Xrotation Yrotation
          JOINT RightLeg
          {
               OFFSET 0.00000 -44.42270 1.37270
               CHANNELS 3 Zrotation Xrotation Yrotation
               JOINT RightFoot
               {
                    OFFSET 0.25355 -42.09240 -1.46059
                    CHANNELS 3 Zrotation Xrotation Yrotation
                    JOINT RightToes
                    {
                         OFFSET 0.04000 -4.41509 8.49910
                         CHANNELS 3 Zrotation Xrotation Yrotation
                         End Site
                         {
                              OFFSET -0.08000 -0.13745 9.77979
                         }
                    }
               }
          }
     }
}
MOTION
Frames: 12
Frame Time: 0.01667
13.08270 94.00480 -17.40550 -3.80248 -11.96280 -13.88810 -3.16675 11.87380 1.10399 -4.13983 23.28020 2.74868 -4.37722 4.67267 2.88103 -0.00000 0.00000 -0.00000 -114.91000 -41.26780 -90.92950 -37.53660 48.99270 -76.35600 10.00220 8.89594 -8.13313 15.61320 2.48588 11.07020 100.07300 4.52657 73.89260 27.64280 29.30390 84.40570 19.29130 13.05590 13.76480 18.23290 -10.05810 -13.98150 -22.24260 6.90179 60.63640 -2.81433 14.16390 0.43297 8.07865 -12.26760 -58.81560 -23.28400 12.67140 10.09040 42.45830 4.44999 -45.22440 -33.59360 -7.43716 -0.10243 5.79315 -37.07340 12.83560 
12.98730 93.93050 -17.33300 -3.68008 -11.84180 -13.39270 -3.25342 12.02520 1.32127 -4.26448 23.55000 3.22703 -4.31610 4.64792 2.13302 -0.00000 0.00000 -0.00000 -114.03900 -40.03540 -90.20300 -36.77900 48.50400 -76.88110 10.10460 8.89306 -8.03287 15.54160 2.32354 10.22900 100.49500 5.42930 73.88670 28.31460 29.40610 84.11780 19.36390 13.04910 13.66090 18.09880 -10.38230 -13.86860 -22.20200 7.09283 60.66330 -2.34978 14.26020 0.34627 7.85836 -13.14300 -59.37710 -23.31100 12.56190 9.80461 42.68720 4.76310 -45.61950 -33.39020 -7.60721 -0.15553 5.88067 -37.28630 13.01920 
12.92860 93.86910 -17.20530 -3.57970 -11.67910 -13.03260 -3.38059 12.06740 1.44777 -4.38785 23.59800 3.50400 -4.28647 4.90583 1.83259 -0.00000 0.00000 -0.00000 -112.89700 -39.33150 -89.24190 -35.85450 47.84680 -77.60320 10.13030 8.89338 -7.99539 15.71560 2.32533 10.13620 100.57000 5.73014 73.87420 28.75140 29.49080 83.92080 19.35850 13.04640 13.65050 17.97650 -10.71290 -13.85830 -22.21240 7.35512 60.64550 -1.98152 14.26570 0.27620 7.56566 -14.10310 -59.51150 -23.36240 12.41770 9.56124 42.89320 5.05535 -45.93620 -33.23760 -7.71768 -0.18968 5.96819 -37.49860 13.19900 
12.89870 93.81670 -17.02290 -3.51235 -11.50150 -12.84200 -3.53459 12.06920 1.52983 -4.51398 23.56230 3.68151 -4.19767 5.14645 1.77654 -0.00000 0.00000 -0.00000 -111.55300 -38.88260 -88.18280 -34.77270 46.98940 -78.43030 10.08450 8.88971 -8.10029 15.86910 2.38906 10.38980 100.54400 5.79717 73.94060 28.92370 29.55760 83.82280 19.22310 13.04520 13.76630 17.91580 -11.04420 -13.99980 -22.34490 7.69486 60.81390 -1.81426 14.17820 0.24349 7.27867 -14.98850 -59.44980 -23.40160 12.22900 9.36766 43.03000 5.39155 -46.19090 -33.20980 -7.77055 -0.20595 6.05871 -37.80890 13.28210 
12.89400 93.76190 -16.78610 -3.48919 -11.33920 -12.82860 -3.69958 12.08260 1.60510 -4.63965 23.54920 3.84144 -4.03695 5.20674 1.72456 -0.00000 0.00000 -0.00000 -110.31400 -38.55970 -87.26740 -33.68870 46.11240 -79.20500 9.97289 8.88649 -8.28940 15.82540 2.43087 10.64100 100.60300 5.90154 74.14210 28.96620 29.61860 83.78520 19.00020 13.03830 13.93140 17.95200 -11.36380 -14.30540 -22.63930 8.10806 61.39840 -1.82575 14.02400 0.24415 6.99689 -15.89270 -59.57380 -23.42550 12.01500 9.23927 43.10230 5.78893 -46.39740 -33.34050 -7.74138 -0.19707 6.17520 -38.33910 13.24530 
12.92100 93.69040 -16.48690 -3.51908 -11.21830 -12.99240 -3.86642 12.12270 1.68623 -4.76010 23.59140 4.01008 -3.86344 5.10322 1.55596 -0.00000 0.00000 -0.00000 -109.51000 -38.44940 -86.69290 -32.85730 45.49710 -79.73590 9.82973 8.88878 -8.45798 15.56230 2.41867 10.73590 100.80700 6.13005 74.47680 29.05450 29.67690 83.74520 18.77430 13.02240 14.05110 18.09140 -11.64700 -14.77450 -23.10920 8.58433 62.52900 -1.87410 13.80250 0.25099 6.65336 -17.04460 -60.14060 -23.46400 11.81670 9.18872 43.14380 6.22845 -46.54670 -33.62440 -7.60352 -0.15427 6.35018 -39.17500 13.14840 
12.99260 93.59710 -16.11190 -3.61498 -11.15860 -13.35640 -4.03039 12.18210 1.77739 -4.87420 23.67840 4.19452 -3.71492 4.91812 1.28289 -0.00000 0.00000 -0.00000 -109.29900 -38.71240 -86.53070 -32.45940 45.34460 -79.90070 9.70672 8.89515 -8.55108 15.15530 2.35286 10.62620 101.11800 6.48012 74.90140 29.28820 29.71980 83.65260 18.59290 12.99940 14.08900 18.33000 -11.84130 -15.37070 -23.76170 9.10094 64.15080 -1.82629 13.44540 0.23856 6.20018 -18.51370 -61.07690 -23.53830 11.67000 9.20847 43.15450 6.70435 -46.57920 -34.02510 -7.33418 -0.06898 6.60465 -40.33950 13.05920 
13.12080 93.49020 -15.64860 -3.79311 -11.16770 -13.96340 -4.19076 12.24800 1.88373 -4.97630 23.78730 4.40214 -3.59771 4.73669 0.96791 -0.00000 0.00000 -0.00000 -109.62800 -39.46000 -86.75900 -32.55890 45.67460 -79.66550 9.63790 8.90244 -8.55656 14.68630 2.24129 10.28960 101.46100 6.91922 75.36500 29.62660 29.74230 83.51650 18.42860 12.96960 14.07030 18.65670 -11.89140 -15.98910 -24.58050 9.64957 66.06950 -1.63490 12.91150 0.19911 5.63317 -20.21410 -62.07220 -23.64510 11.59150 9.29384 43.08960 7.21666 -46.40980 -34.48450 -6.88974 0.07469 6.95004 -41.83780 13.00920 
13.31360 93.38780 -15.09100 -4.06124 -11.23860 -14.84640 -4.36067 12.30970 2.00458 -5.04609 23.89490 4.62145 -3.53685 4.62458 0.67305 -0.00000 0.00000 -0.00000 -110.28000 -40.73390 -87.30490 -33.20110 46.30730 -79.00450 9.61025 8.91014 -8.49735 14.18710 2.09149 9.73014 101.78400 7.38046 75.83130 29.96190 29.76390 83.38360 18.24080 12.93420 14.04080 19.03860 -11.79140 -16.47130 -25.50880 10.28210 68.11050 -1.27549 12.33650 0.13197 4.93363 -22.15850 -62.86280 -23.78780 11.59200 9.48241 42.91520 7.70742 -45.98140 -34.92680 -6.21753 0.29572 7.39392 -43.63640 13.03670 
13.57460 93.30410 -14.43580 -4.40905 -11.36000 -16.01210 -4.58878 12.36550 2.12644 -5.06027 23.98640 4.81309 -3.56606 4.60012 0.45888 -0.00000 0.00000 -0.00000 -110.94900 -42.56460 -88.05560 -34.39630 46.95750 -77.90890 9.57025 8.91939 -8.43545 13.65400 1.91409 8.99248 102.06700 7.76290 76.28420 30.25020 29.82380 83.28210 18.04460 12.89960 14.02400 19.41560 -11.64620 -16.66600 -26.49480 11.21250 70.20020 -0.73019 11.98750 0.03713 4.06488 -24.45170 -63.36550 -24.00000 11.67820 9.83777 42.64430 8.09397 -45.30070 -35.27040 -5.32800 0.59113 7.93690 -45.59090 13.23210 
13.90800 93.21680 -13.66170 -4.80494 -11.52260 -17.44040 -4.98020 12.42410 2.22077 -5.02213 24.05100 4.93059 -3.70227 4.65194 0.37127 -0.00000 0.00000 -0.00000 -111.28500 -45.01980 -88.83000 -35.94420 47.36540 -76.52770 9.45778 8.93084 -8.44897 13.11960 1.72914 8.16289 102.29100 7.93638 76.71310 30.53410 29.97000 83.21630 17.89150 12.87300 14.01280 19.69920 -11.79680 -16.49860 -27.61900 13.05280 72.35690 -0.20527 12.03510 -0.05268 3.06580 -27.00990 -63.60390 -24.33500 11.78530 10.37270 42.32950 8.47444 -44.48220 -35.41670 -4.37149 0.90769 8.58347 -47.50190 13.72020 
14.30890 93.20090 -12.82180 -5.22090 -11.72040 -19.17610 -5.58664 12.46190 2.30807 -4.94850 24.05970 4.94744 -3.95670 4.78225 0.41779 -0.00000 0.00000 -0.00000 -110.92900 -48.19530 -89.35390 -37.43320 47.37610 -75.18570 9.23479 8.94578 -8.58106 12.69900 1.56430 7.34983 102.40000 7.75422 77.10080 30.90290 30.24030 83.17800 17.82160 12.85800 13.99020 19.91370 -12.55400 -16.03090 -29.12470 16.22750 74.71510 0.03086 12.58460 -0.09654 2.09988 -29.43970 -63.65460 -24.84710 12.03710 11.13610 41.93540 8.44893 -43.42450 -35.54610 -3.26110 1.27615 9.32034 -49.19090 14.54740 
